<svg width="122" height="131" viewBox="0 0 122 131" fill="none" xmlns="http://www.w3.org/2000/svg">
<path d="M66.5091 105C92.9991 105 114.475 83.5241 114.475 56.9395C114.475 30.3548 92.9045 8.87897 66.5091 8.87897C40.019 8.87897 18.5432 30.3548 18.5432 56.9395C18.5432 83.5241 40.019 105 66.5091 105Z" fill="#EAEEF9"/>
<path d="M111.353 25.435C113.495 25.435 115.232 23.6984 115.232 21.5561C115.232 19.4139 113.495 17.6772 111.353 17.6772C109.211 17.6772 107.474 19.4139 107.474 21.5561C107.474 23.6984 109.211 25.435 111.353 25.435Z" fill="#EAEEF9"/>
<path d="M117.029 10.298C118.492 10.298 119.678 9.11201 119.678 7.649C119.678 6.186 118.492 5 117.029 5C115.566 5 114.38 6.186 114.38 7.649C114.38 9.11201 115.566 10.298 117.029 10.298Z" fill="#EAEEF9"/>
<path d="M21.0974 25.3405C22.5604 25.3405 23.7464 24.1545 23.7464 22.6915C23.7464 21.2285 22.5604 20.0424 21.0974 20.0424C19.6344 20.0424 18.4484 21.2285 18.4484 22.6915C18.4484 24.1545 19.6344 25.3405 21.0974 25.3405Z" fill="#EAEEF9"/>
<path d="M4.91958 76.4285C7.63659 76.4285 9.83916 74.2259 9.83916 71.5089C9.83916 68.7919 7.63659 66.5894 4.91958 66.5894C2.20257 66.5894 0 68.7919 0 71.5089C0 74.2259 2.20257 76.4285 4.91958 76.4285Z" fill="#EAEEF9"/>
<g filter="url(#filter0_d_127_364)">
<path d="M99.1485 32.9091L99.9053 93.8362C99.9053 95.9175 98.2024 97.5259 96.121 97.5259H36.7076C34.6263 97.5259 32.9233 95.8229 32.9233 93.8362V15.5013C32.9233 13.42 34.6263 11.8116 36.7076 11.8116H79.754L99.1485 32.9091Z" fill="url(#paint0_linear_127_364)"/>
</g>
<path d="M61.8731 85.3215H59.6972C59.2241 85.3215 58.8457 84.8485 58.8457 84.2809C58.8457 83.7132 59.2241 83.2402 59.6972 83.2402H61.8731C62.3462 83.2402 62.7246 83.7132 62.7246 84.2809C62.7246 84.9431 62.3462 85.3215 61.8731 85.3215Z" fill="#CED7E2"/>
<path d="M55.2508 85.3215H42.5734C42.1004 85.3215 41.7219 84.8485 41.7219 84.2809C41.7219 83.7132 42.1004 83.2402 42.5734 83.2402H55.2508C55.7238 83.2402 56.1022 83.7132 56.1022 84.2809C56.1022 84.9431 55.7238 85.3215 55.2508 85.3215Z" fill="#D5DDEA"/>
<path d="M71.4286 24.5838H42.9518C42.2896 24.5838 41.7219 24.0162 41.7219 23.3539C41.7219 22.6917 42.2896 22.124 42.9518 22.124H71.4286C72.0909 22.124 72.6585 22.6917 72.6585 23.3539C72.6585 24.0162 72.0909 24.5838 71.4286 24.5838Z" fill="#D5DDEA"/>
<path d="M53.9263 31.3955H42.9518C42.2896 31.3955 41.7219 30.8278 41.7219 30.1656C41.7219 29.5033 42.2896 28.9357 42.9518 28.9357H53.8317C54.4939 28.9357 55.0616 29.5033 55.0616 30.1656C55.0616 30.8278 54.4939 31.3955 53.9263 31.3955Z" fill="#D5DDEA"/>
<path d="M79.754 11.8116V28.6517C79.754 31.0169 81.8354 32.9091 84.2006 32.9091H99.1485" fill="#D5DDEA"/>
<path d="M103.69 98.945C102.744 98.945 101.797 98.5666 101.041 97.7151L85.2412 81.9157L84.6735 82.2941C79.5647 86.0784 73.6045 88.0652 67.5496 88.0652C60.2649 88.0652 52.9801 85.1324 47.5875 80.0236C41.911 74.6309 38.789 67.3462 38.789 59.3992C38.789 43.5997 51.6556 30.7332 67.455 30.7332C78.2402 30.7332 87.701 36.4096 92.8098 46.0595C97.824 55.6149 97.1617 66.7785 91.0122 75.7662L90.6338 76.3339L106.528 92.2279C108.136 93.8362 107.758 95.4445 107.474 96.296C106.717 97.8097 105.203 98.945 103.69 98.945ZM67.455 38.5856C55.9129 38.5856 46.6414 47.9517 46.6414 59.3992C46.6414 72.455 57.332 80.3074 67.7388 80.3074C74.0775 80.3074 79.8486 77.4692 83.9167 72.3604C88.9309 66.1163 89.7823 57.6962 86.2819 50.4115C82.6868 43.1267 75.4966 38.5856 67.455 38.5856Z" fill="#989FB0"/>
<path d="M58.4671 62.8051C59.697 62.8051 60.7377 61.7644 60.7377 60.5345C60.7377 59.3046 59.697 58.2639 58.4671 58.2639C57.2372 58.2639 56.1965 59.3046 56.1965 60.5345C56.1965 61.7644 57.2372 62.8051 58.4671 62.8051Z" fill="#989FB0"/>
<path d="M75.8751 62.8051C77.105 62.8051 78.1456 61.7644 78.1456 60.5345C78.1456 59.3046 77.105 58.2639 75.8751 58.2639C74.6452 58.2639 73.6045 59.3046 73.6045 60.5345C73.6045 61.859 74.6452 62.8051 75.8751 62.8051Z" fill="#989FB0"/>
<path d="M58.3785 53.0224L53.3838 55.7193L54.058 56.968L59.0527 54.2711L58.3785 53.0224Z" fill="#989FB0"/>
<path d="M75.5662 52.9868L74.8921 54.2356L79.8874 56.9319L80.5614 55.6831L75.5662 52.9868Z" fill="#989FB0"/>
<path d="M67.171 68.1032C68.634 68.1032 69.82 67.2137 69.82 66.1164C69.82 65.0192 68.634 64.1297 67.171 64.1297C65.708 64.1297 64.522 65.0192 64.522 66.1164C64.522 67.2137 65.708 68.1032 67.171 68.1032Z" fill="#989FB0"/>
<defs>
<filter id="filter0_d_127_364" x="10.9233" y="0.811646" width="110.982" height="129.714" filterUnits="userSpaceOnUse" color-interpolation-filters="sRGB">
<feFlood flood-opacity="0" result="BackgroundImageFix"/>
<feColorMatrix in="SourceAlpha" type="matrix" values="0 0 0 0 0 0 0 0 0 0 0 0 0 0 0 0 0 0 127 0" result="hardAlpha"/>
<feOffset dy="11"/>
<feGaussianBlur stdDeviation="11"/>
<feColorMatrix type="matrix" values="0 0 0 0 0.397708 0 0 0 0 0.47749 0 0 0 0 0.575 0 0 0 0.27 0"/>
<feBlend mode="normal" in2="BackgroundImageFix" result="effect1_dropShadow_127_364"/>
<feBlend mode="normal" in="SourceGraphic" in2="effect1_dropShadow_127_364" result="shape"/>
</filter>
<linearGradient id="paint0_linear_127_364" x1="66.3925" y1="9.82899" x2="66.3925" y2="98.4499" gradientUnits="userSpaceOnUse">
<stop stop-color="#FDFEFF"/>
<stop offset="0.9964" stop-color="#ECF0F5"/>
</linearGradient>
</defs>
</svg>
