<svg width="87" height="87" viewBox="0 0 87 87" fill="none" xmlns="http://www.w3.org/2000/svg">
<g clip-path="url(#clip0_43_1180)">
<path d="M82.8816 21.3233C82.8548 19.3926 81.4051 17.7842 79.4902 17.5367C61.8173 15.2524 49.5471 5.29398 45.1518 1.1888C44.145 0.248347 42.58 0.248347 41.5731 1.1888C37.1778 5.29398 24.9078 15.2524 7.23478 17.5367C5.31999 17.7842 3.87013 19.3928 3.84332 21.3233C3.66885 33.9658 5.85031 77.4132 43.3626 86.7912C80.8751 77.4132 83.0566 33.9658 82.8816 21.3233Z" fill="url(#paint0_linear_43_1180)"/>
<path d="M48.7019 85.1451C48.9647 85.0479 49.2257 84.9487 49.4846 84.8479C49.819 84.7176 50.1501 84.5843 50.478 84.4479C50.6936 84.3582 50.9078 84.2672 51.1206 84.1752C51.4557 84.03 51.7878 83.8822 52.116 83.7308C52.2394 83.674 52.3619 83.6164 52.4843 83.5587C52.7869 83.4159 53.0862 83.2703 53.3828 83.1225C53.8131 82.9079 54.2374 82.6881 54.6553 82.463C55.0546 82.2479 55.4496 82.0289 55.8378 81.8044C56.2837 81.5465 56.722 81.2825 57.1535 81.0128C57.1633 81.0066 57.1734 81.0007 57.1835 80.9946C58.0041 80.4808 58.7976 79.9451 59.5669 79.3907C59.6247 79.349 59.6836 79.3081 59.741 79.2663C60.3025 78.8576 60.8494 78.4377 61.3841 78.0089C61.4374 77.9663 61.4916 77.9241 61.5446 77.8813C61.8473 77.6362 62.1447 77.387 62.439 77.1357C62.7134 76.9014 62.9857 76.6654 63.2528 76.4259C63.3432 76.3449 63.4317 76.2627 63.5212 76.1813C63.6148 76.0961 63.709 76.0115 63.8017 75.9255C64.0772 75.6703 64.3477 75.4116 64.6152 75.151C64.6997 75.0687 64.785 74.9871 64.8686 74.9044C65.1587 74.6174 65.4431 74.327 65.7243 74.034C65.7811 73.9749 65.839 73.9159 65.8955 73.8565C66.2264 73.5079 66.5507 73.1553 66.8692 72.7986C66.8737 72.7934 66.8784 72.7883 66.8832 72.7832C67.2862 72.3313 67.6781 71.8725 68.0615 71.4084C68.2919 71.1296 68.5201 70.8491 68.7437 70.566C69.185 70.0072 69.6125 69.4405 70.0272 68.8672C70.0319 68.8608 70.0366 68.8544 70.0413 68.8478C70.1386 68.7131 70.234 68.5778 70.3301 68.4424C70.3719 68.3834 70.4145 68.3246 70.456 68.2654C70.5233 68.1697 70.5888 68.0732 70.6554 67.977C70.7242 67.8775 70.7936 67.7782 70.8619 67.6784C71.0841 67.3521 71.3012 67.0236 71.5155 66.6935C71.8169 66.2289 72.1115 65.7611 72.3973 65.2896C72.7492 64.7094 73.0891 64.124 73.4183 63.5345C73.4321 63.5094 73.4466 63.4848 73.4604 63.4596C73.5336 63.3283 73.6051 63.1963 73.677 63.0647C73.7173 62.9909 73.7585 62.9175 73.7984 62.8435C74.0034 62.4646 74.2031 62.0838 74.399 61.702C74.4159 61.6689 74.4334 61.6359 74.4503 61.603C74.5293 61.4481 74.607 61.2929 74.6844 61.1374C74.7109 61.0845 74.7378 61.0319 74.7643 60.9788C74.807 60.893 74.8483 60.8069 74.8904 60.7209C75.1554 60.1808 75.4126 59.6383 75.6606 59.0935C76.0987 58.1313 76.5102 57.1629 76.8977 56.1918C77.0188 55.8885 77.1383 55.5851 77.2544 55.2815C77.561 54.4806 77.8508 53.6784 78.1256 52.8763C78.1426 52.8263 78.1605 52.7764 78.1775 52.7263C78.2296 52.5731 78.2805 52.42 78.3316 52.2666C78.3515 52.2069 78.372 52.1471 78.3916 52.0874C78.5856 51.4998 78.771 50.9127 78.9492 50.3266C78.9647 50.2755 78.9809 50.2242 78.9963 50.1728C79.09 49.862 79.1808 49.5516 79.2702 49.2415C79.37 48.8956 79.4676 48.55 79.5621 48.2051C79.7036 47.6886 79.8389 47.1736 79.9689 46.6605C80.0464 46.355 80.1226 46.0499 80.196 45.746C80.2285 45.6117 80.2598 45.4778 80.2917 45.3436C80.3092 45.2695 80.3273 45.1953 80.3446 45.1211C80.4303 44.7552 80.5127 44.3905 80.5929 44.0271C80.6039 43.9774 80.6154 43.9276 80.6262 43.8779C80.6926 43.5745 80.7565 43.2724 80.819 42.971C80.8542 42.8016 80.8891 42.6325 80.923 42.4638C80.9916 42.1246 81.0582 41.7866 81.1222 41.4507C81.1238 41.4428 81.1255 41.4347 81.1268 41.4266C81.1865 41.1122 81.244 40.7993 81.2999 40.4878C81.3518 40.1985 81.4028 39.9103 81.4516 39.6237C81.5084 39.2901 81.5627 38.9591 81.6152 38.6293C81.6251 38.5668 81.6354 38.5037 81.6453 38.4414C81.6541 38.3859 81.6622 38.331 81.6709 38.2755C81.6925 38.1359 81.7144 37.9962 81.7355 37.8573C81.7868 37.5183 81.8355 37.182 81.8825 36.8481C81.8892 36.7995 81.8965 36.7506 81.9032 36.7022C81.9204 36.5777 81.9373 36.4539 81.954 36.33C81.9629 36.2641 81.972 36.198 81.9809 36.1325C81.9884 36.0765 81.9953 36.0211 82.0029 35.9654C82.0701 35.4552 82.1328 34.951 82.1906 34.454C82.3172 33.3679 82.4221 32.3152 82.5089 31.3021C82.5103 31.2869 82.5116 31.2713 82.513 31.2561C82.5347 31.0026 82.5548 30.7522 82.574 30.5039C82.5836 30.3792 82.5932 30.2548 82.6025 30.1314C82.6453 29.5569 82.6822 28.9971 82.7139 28.4526C82.7258 28.2459 82.7377 28.0406 82.7481 27.8388C82.7704 27.4173 82.7891 27.0068 82.8053 26.6061C82.81 26.4883 82.8145 26.3716 82.8187 26.2556C82.8422 25.627 82.8589 25.0259 82.87 24.4558C82.8702 24.4455 82.8705 24.4349 82.8707 24.4245C82.8828 23.7866 82.8882 23.1878 82.8885 22.6307C82.8885 22.6196 82.8885 22.6078 82.8885 22.5967C82.8887 22.1434 82.8855 21.7184 82.8801 21.3233C82.8533 19.3923 81.4034 17.7837 79.4881 17.536C78.9952 17.4723 78.5079 17.4005 78.0236 17.3252C77.9162 17.3085 77.8087 17.2918 77.7018 17.2746C77.2296 17.1984 76.7608 17.1178 76.2969 17.0312C76.2273 17.0182 76.1589 17.004 76.0896 16.9909C75.668 16.9105 75.2501 16.8258 74.8353 16.7372C74.7461 16.7183 74.6566 16.6998 74.5678 16.6804C74.1158 16.5818 73.6681 16.4781 73.2246 16.3704C73.1314 16.3476 73.039 16.3242 72.9461 16.3011C72.536 16.1993 72.1294 16.0943 71.7269 15.985C71.6746 15.9709 71.6218 15.9574 71.5696 15.9432C71.1325 15.8234 70.7008 15.6985 70.2723 15.5705C70.175 15.5413 70.0781 15.5122 69.9811 15.4827C69.5523 15.3522 69.1265 15.2192 68.7066 15.0813C68.6837 15.0739 68.6614 15.066 68.6385 15.0584C68.2344 14.9251 67.8354 14.7878 67.4398 14.6479C67.3501 14.6162 67.2601 14.5849 67.1707 14.5527C66.768 14.4084 66.369 14.2612 65.9753 14.111C65.9082 14.0854 65.8423 14.0593 65.7753 14.0335C65.419 13.8959 65.0663 13.7562 64.7174 13.6141C64.6484 13.5859 64.579 13.5585 64.5104 13.5303C64.1277 13.3729 63.7501 13.2131 63.3769 13.0509C63.2955 13.0155 63.2149 12.9799 63.134 12.9445C62.7817 12.7896 62.4326 12.6335 62.0887 12.4749C62.0574 12.4606 62.0257 12.4464 61.9945 12.4319C61.6283 12.2623 61.2681 12.0904 60.9116 11.9171C60.8308 11.8778 60.7504 11.8385 60.67 11.7993C60.3175 11.6263 59.9686 11.452 59.6259 11.276C59.5919 11.2587 59.5588 11.2408 59.5249 11.2234C59.205 11.0584 58.8898 10.892 58.5784 10.725C58.5081 10.6872 58.4378 10.6498 58.3679 10.612C58.0402 10.4347 57.7174 10.2567 57.3996 10.0778C57.3396 10.044 57.2804 10.0099 57.2208 9.97619C56.9338 9.81352 56.651 9.65034 56.3723 9.48683C56.3226 9.4575 56.272 9.4285 56.2225 9.39917C55.9162 9.2183 55.6156 9.03725 55.3193 8.85587C55.2529 8.81525 55.1873 8.77462 55.1214 8.734C54.8309 8.55498 54.544 8.37579 54.2634 8.19693C54.2539 8.19087 54.2441 8.1848 54.2344 8.17873C53.9454 7.99431 53.6636 7.81023 53.3853 7.62666C53.3229 7.58536 53.2605 7.54423 53.1987 7.5031C52.928 7.32324 52.6613 7.14371 52.401 6.96536C52.3661 6.94143 52.3324 6.91783 52.2978 6.89389C52.0598 6.73004 51.8269 6.5672 51.5979 6.40537C51.5474 6.36947 51.4963 6.33356 51.4459 6.298C51.2 6.12302 50.9594 5.94939 50.7241 5.77728C50.6757 5.74172 50.6283 5.70665 50.5805 5.67159C50.3667 5.51415 50.157 5.35822 49.952 5.20364C49.9213 5.18038 49.8898 5.15712 49.8593 5.13385C49.6356 4.96444 49.4183 4.79722 49.2056 4.63185C49.1569 4.59392 49.109 4.5565 49.0608 4.51874C48.8487 4.35287 48.6402 4.18851 48.4395 4.02753C48.4352 4.02416 48.4314 4.02096 48.4271 4.01758C48.2277 3.85761 48.0361 3.70118 47.8481 3.5466C47.806 3.51188 47.7638 3.47732 47.7222 3.4431C47.5383 3.29088 47.3591 3.14136 47.1863 2.99538C47.1587 2.97195 47.1327 2.9497 47.1054 2.92643C46.9495 2.79411 46.7986 2.66448 46.6521 2.53754C46.6218 2.51125 46.5909 2.48461 46.5609 2.45848C46.4021 2.32042 46.2496 2.18607 46.1022 2.05493C46.0707 2.02678 46.0405 1.99981 46.0095 1.97199C45.875 1.85163 45.7445 1.73414 45.6198 1.62069C45.605 1.60721 45.5891 1.59288 45.5744 1.57956C45.4399 1.45667 45.313 1.33935 45.1904 1.22523C45.178 1.21343 45.1633 1.20028 45.1508 1.18865C44.6487 0.718507 44.0056 0.483521 43.3626 0.483521V86.7912C44.1947 86.5832 45.0086 86.3577 45.8062 86.1168C46.7978 85.8174 47.7623 85.4927 48.7019 85.1451Z" fill="url(#paint1_linear_43_1180)"/>
<path d="M78.1954 23.9693C78.1718 22.2678 76.894 20.85 75.2063 20.6318C59.6291 18.6184 48.814 9.84101 44.9401 6.22266C44.0526 5.3938 42.6732 5.3938 41.7858 6.22266C37.9118 9.84101 27.0968 18.6184 11.5197 20.6318C9.83194 20.85 8.55401 22.2678 8.53058 23.9693C8.376 35.1126 10.2987 73.4078 43.3626 81.6738C76.4267 73.4078 78.3494 35.1126 78.1954 23.9693Z" fill="url(#paint2_linear_43_1180)"/>
<path d="M43.3626 78.7433L42.9727 78.6459C35.9592 76.8924 29.9603 73.5106 25.1428 68.5941C21.1436 64.5127 17.9302 59.346 15.5915 53.2377C11.5272 42.6226 11.048 31.8162 11.124 26.3193C11.1554 24.043 12.8878 22.1056 15.1533 21.8128C28.3603 20.1057 37.5434 12.676 40.8786 9.56081C42.2713 8.25979 44.4536 8.25995 45.8465 9.56064C49.1817 12.676 58.3648 20.1057 71.5716 21.8128C73.8375 22.1058 75.5699 24.0433 75.6011 26.3193C75.7445 36.6909 73.8722 71.1159 43.7524 78.6461L43.3626 78.7433ZM43.3626 11.7955C43.2583 11.7955 43.1539 11.8335 43.0725 11.9095C39.51 15.2369 29.6984 23.1735 15.5655 25.0001C14.8754 25.0893 14.3476 25.6757 14.338 26.3637C14.2034 36.092 15.9089 68.2662 43.3626 75.4279C70.8164 68.2662 72.522 36.092 72.3875 26.3637C72.3779 25.6756 71.8502 25.0893 71.1598 25.0001C57.0271 23.1735 47.2153 15.2369 43.6529 11.9095C43.5713 11.8335 43.4671 11.7955 43.3626 11.7955Z" fill="white"/>
<path d="M78.1954 23.9693C78.1718 22.2678 76.894 20.8499 75.2063 20.6318C59.6291 18.6184 48.814 9.84099 44.9401 6.22264C44.4964 5.80812 43.9297 5.60095 43.3628 5.60095V81.6739C76.4268 73.4078 78.3495 35.1126 78.1954 23.9693Z" fill="url(#paint3_linear_43_1180)"/>
<path d="M80.0876 46.186C77.3072 57.4262 71.8561 69.6549 61.298 78.0758L28.5821 45.3601C27.3856 44.1636 27.3856 42.2225 28.5821 41.0245C29.7786 39.8263 31.7214 39.8263 32.9177 41.0245L39.4992 47.606C40.3098 48.415 41.6297 48.415 42.437 47.606L59.8053 30.2394C61.0035 29.0412 62.9445 29.0412 64.1409 30.2394H64.1426L80.0876 46.186Z" fill="url(#paint4_linear_43_1180)"/>
<path d="M64.1424 30.2399C65.3399 31.4375 65.3397 33.3787 64.1422 34.5761L46.7741 51.9421C43.5728 55.1436 38.3634 55.1436 35.1643 51.9421L28.5824 45.3603C27.3853 44.1631 27.3849 42.2222 28.5819 41.0249C29.7793 39.827 31.7209 39.8267 32.9184 41.0244L39.499 47.605C40.309 48.415 41.6289 48.415 42.4368 47.605L59.8051 30.2386C61.0024 29.0412 62.9437 29.0414 64.1409 30.2388L64.1424 30.2399Z" fill="url(#paint5_linear_43_1180)"/>
</g>
<defs>
<linearGradient id="paint0_linear_43_1180" x1="29.3243" y1="24.2991" x2="96.8256" y2="91.8004" gradientUnits="userSpaceOnUse">
<stop stop-color="#62E1FB"/>
<stop offset="1" stop-color="#00A2F3"/>
</linearGradient>
<linearGradient id="paint1_linear_43_1180" x1="75.9245" y1="43.6383" x2="30.5073" y2="43.6383" gradientUnits="userSpaceOnUse">
<stop stop-color="#00A2F3" stop-opacity="0"/>
<stop offset="1" stop-color="#0075CD"/>
</linearGradient>
<linearGradient id="paint2_linear_43_1180" x1="29.89" y1="25.4935" x2="66.7916" y2="62.3951" gradientUnits="userSpaceOnUse">
<stop stop-color="#A7F3CE"/>
<stop offset="1" stop-color="#61DB99"/>
</linearGradient>
<linearGradient id="paint3_linear_43_1180" x1="72.65" y1="43.6383" x2="27.2632" y2="43.6383" gradientUnits="userSpaceOnUse">
<stop stop-color="#61DB99" stop-opacity="0"/>
<stop offset="1" stop-color="#009E74"/>
</linearGradient>
<linearGradient id="paint4_linear_43_1180" x1="68.531" y1="59.9704" x2="51.2427" y2="42.6822" gradientUnits="userSpaceOnUse">
<stop stop-color="#61DB99" stop-opacity="0"/>
<stop offset="1" stop-color="#009E74"/>
</linearGradient>
<linearGradient id="paint5_linear_43_1180" x1="46.3614" y1="37.2855" x2="46.3614" y2="57.3237" gradientUnits="userSpaceOnUse">
<stop stop-color="#FFF465"/>
<stop offset="1" stop-color="#FFE600"/>
</linearGradient>
<clipPath id="clip0_43_1180">
<rect width="86.3077" height="86.3077" fill="white" transform="translate(0.208794 0.483521)"/>
</clipPath>
</defs>
</svg>
